<mxfile host="app.diagrams.net" modified="2020-07-08T02:17:49.720Z" agent="5.0 (Windows NT 10.0; Win64; x64) AppleWebKit/537.36 (KHTML, like Gecko) Chrome/83.0.4103.116 Safari/537.36" etag="2nw52oMRt8wYvzH7LEwy" version="13.3.5" type="github">
  <diagram id="45nuEe00fu6tHupbj59B" name="4G backup design">
    <mxGraphModel dx="1422" dy="762" grid="1" gridSize="10" guides="1" tooltips="1" connect="1" arrows="1" fold="1" page="1" pageScale="1" pageWidth="827" pageHeight="1169" math="0" shadow="0">
      <root>
        <mxCell id="0" />
        <mxCell id="1" parent="0" />
        <mxCell id="bz7vgp1j4L_jrthaB-WK-10" style="edgeStyle=orthogonalEdgeStyle;rounded=0;orthogonalLoop=1;jettySize=auto;html=1;exitX=0.5;exitY=1;exitDx=0;exitDy=0;entryX=0.5;entryY=0;entryDx=0;entryDy=0;" edge="1" parent="1" source="bz7vgp1j4L_jrthaB-WK-2" target="bz7vgp1j4L_jrthaB-WK-3">
          <mxGeometry relative="1" as="geometry" />
        </mxCell>
        <mxCell id="bz7vgp1j4L_jrthaB-WK-2" value="" style="ellipse;whiteSpace=wrap;html=1;aspect=fixed;fillColor=#dae8fc;strokeColor=#6c8ebf;" vertex="1" parent="1">
          <mxGeometry x="390" y="220" width="20" height="20" as="geometry" />
        </mxCell>
        <mxCell id="bz7vgp1j4L_jrthaB-WK-6" style="edgeStyle=orthogonalEdgeStyle;rounded=0;orthogonalLoop=1;jettySize=auto;html=1;exitX=0.5;exitY=1;exitDx=0;exitDy=0;entryX=0.5;entryY=0;entryDx=0;entryDy=0;" edge="1" parent="1" source="bz7vgp1j4L_jrthaB-WK-3" target="bz7vgp1j4L_jrthaB-WK-11">
          <mxGeometry relative="1" as="geometry">
            <mxPoint x="400" y="525" as="targetPoint" />
          </mxGeometry>
        </mxCell>
        <mxCell id="bz7vgp1j4L_jrthaB-WK-8" value="Yes" style="edgeLabel;html=1;align=center;verticalAlign=middle;resizable=0;points=[];" vertex="1" connectable="0" parent="bz7vgp1j4L_jrthaB-WK-6">
          <mxGeometry x="-0.2632" y="1" relative="1" as="geometry">
            <mxPoint as="offset" />
          </mxGeometry>
        </mxCell>
        <mxCell id="bz7vgp1j4L_jrthaB-WK-7" style="edgeStyle=orthogonalEdgeStyle;rounded=0;orthogonalLoop=1;jettySize=auto;html=1;exitX=1;exitY=0.5;exitDx=0;exitDy=0;entryX=0.5;entryY=0;entryDx=0;entryDy=0;" edge="1" parent="1" source="bz7vgp1j4L_jrthaB-WK-3" target="bz7vgp1j4L_jrthaB-WK-5">
          <mxGeometry relative="1" as="geometry" />
        </mxCell>
        <mxCell id="bz7vgp1j4L_jrthaB-WK-9" value="No" style="edgeLabel;html=1;align=center;verticalAlign=middle;resizable=0;points=[];" vertex="1" connectable="0" parent="bz7vgp1j4L_jrthaB-WK-7">
          <mxGeometry x="-0.3288" y="3" relative="1" as="geometry">
            <mxPoint as="offset" />
          </mxGeometry>
        </mxCell>
        <mxCell id="bz7vgp1j4L_jrthaB-WK-3" value="gwWanSwitchOverIpMonitorEnable" style="rhombus;whiteSpace=wrap;html=1;" vertex="1" parent="1">
          <mxGeometry x="285" y="290" width="230" height="140" as="geometry" />
        </mxCell>
        <mxCell id="bz7vgp1j4L_jrthaB-WK-5" value="End" style="rounded=0;whiteSpace=wrap;html=1;" vertex="1" parent="1">
          <mxGeometry x="610" y="500" width="120" height="60" as="geometry" />
        </mxCell>
        <mxCell id="bz7vgp1j4L_jrthaB-WK-11" value="timer&amp;lt;gwWanSwitchoverIpMonitorInterval" style="rhombus;whiteSpace=wrap;html=1;" vertex="1" parent="1">
          <mxGeometry x="272.5" y="520" width="255" height="150" as="geometry" />
        </mxCell>
        <mxCell id="bz7vgp1j4L_jrthaB-WK-12" value="" style="rounded=0;whiteSpace=wrap;html=1;" vertex="1" parent="1">
          <mxGeometry x="370" y="800" width="120" height="60" as="geometry" />
        </mxCell>
      </root>
    </mxGraphModel>
  </diagram>
</mxfile>
